<svg width="14" height="14" viewBox="0 0 14 14" fill="none" xmlns="http://www.w3.org/2000/svg">
<g clip-path="url(#clip0_4242_13514)">
<circle cx="7" cy="7" r="6.4" stroke="black" stroke-width="1.2"/>
<path d="M9.77344 5.01367L9.5 5.95898H4.39844L4.66797 5.01367H9.77344ZM7.31641 11.0996L4.5 7.67383L4.48828 6.94336H5.88672C6.24089 6.94336 6.54036 6.88997 6.78516 6.7832C7.03255 6.67643 7.22005 6.52018 7.34766 6.31445C7.47786 6.10872 7.54297 5.85352 7.54297 5.54883C7.54297 5.09831 7.40885 4.74284 7.14062 4.48242C6.8724 4.2194 6.45443 4.08789 5.88672 4.08789H4.39844L4.67578 3.09961H5.88672C6.52995 3.09961 7.05859 3.20378 7.47266 3.41211C7.88932 3.61784 8.19922 3.90299 8.40234 4.26758C8.60547 4.63216 8.70703 5.04883 8.70703 5.51758C8.70703 5.93945 8.61979 6.32357 8.44531 6.66992C8.27344 7.01367 7.9987 7.29362 7.62109 7.50977C7.24349 7.72331 6.74609 7.8418 6.12891 7.86523L6.09375 7.87305L8.67969 11.0332V11.0996H7.31641ZM9.77344 3.09961L9.5 4.05273L5.44141 4.02539L5.71484 3.09961H9.77344Z" fill="black"/>
</g>
<defs>
<clipPath id="clip0_4242_13514">
<rect width="14" height="14" fill="white"/>
</clipPath>
</defs>
</svg>
