<svg width="896" height="323" viewBox="0 0 896 323" fill="none" xmlns="http://www.w3.org/2000/svg">
<rect width="896" height="323" rx="30" fill="white"/>
<g clip-path="url(#clip0_577_191)">
<path d="M273.954 144.796C272.05 139.798 268.141 135.336 263.382 132.119C249.646 123.397 228.713 122.776 214.56 130.661C206.84 134.597 201.767 142.385 200.188 150.405C197.324 163.581 198.064 179.259 208.215 189.135C220.053 199.512 237.281 201.805 252.6 197.542C253.328 197.402 255.635 196.821 257.226 195.977L257.674 195.785C262.432 193.808 266.969 190.589 270.357 186.229C278.176 174.797 278.712 157.669 273.954 144.796ZM249.011 174.385C248.471 176.884 246.79 179.472 244.139 180.411C239.919 182.267 234.211 181.753 230.301 179.581C227.023 177.289 226.601 173.451 226.179 169.819C225.858 162.659 225.342 155.077 227.347 148.532C228.919 144.478 233.255 143.435 237.176 143.129C241.294 143.129 245.303 143.757 247.847 147.079C249.431 149.461 249.333 152.579 249.646 155.386C249.535 161.301 250.066 168.356 249.011 174.385ZM123.772 180.833C120.283 180.62 116.373 180.926 112.995 180.511L113.099 144.054L113.313 143.75L123.772 143.648C123.881 137.731 123.986 131.384 123.663 125.991L83.8277 125.88L77.2679 125.993C77.1636 131.493 77.1636 137.925 77.2679 143.539C80.8643 143.651 84.2402 143.539 87.73 143.864V179.171L87.628 180.622L77.1636 180.836C76.9455 186.545 76.9455 192.261 77.1636 197.971H123.77L123.772 180.833ZM241.076 205.752C236.643 212.094 231.041 218.22 224.924 222.985C224.702 223.31 224.069 223.186 223.867 222.888C221.217 221.231 218.365 219.874 215.823 218.22C219.209 214.173 222.487 210.124 225.024 205.641H221.736C219.109 209.498 216.354 213.545 212.869 216.961C208.215 215.095 203.991 213.436 199.235 212.179L198.706 211.783C199.446 209.685 200.816 207.715 201.236 205.636H198.384L195.532 211.247C189.304 209.898 182.431 209.163 176.09 208.753C175.77 207.822 176.189 206.47 175.77 205.636H173.022C172.804 206.885 173.34 207.826 172.704 208.862C166.152 209.163 159.812 209.898 153.689 211.157L150.825 205.636C149.779 205.636 148.603 205.437 147.873 205.747L150.509 211.876L150.194 212.179C145.457 213.549 140.801 215.181 136.245 217.067L135.825 216.854C132.859 213.635 130.005 210.119 127.677 206.586C127.153 204.811 125.038 205.849 123.874 205.641C126.401 210.216 129.794 214.261 133.17 218.421C130.318 220.088 127.475 221.946 124.502 223.31C118.038 218.386 112.403 212.46 107.81 205.757C106.539 205.553 105.702 205.645 104.425 205.757C112.035 217.596 123.874 227.978 136.24 234.106C136.24 234.106 136.24 234.014 136.354 234.014C136.444 234.014 136.655 234.206 136.444 234.315C144.798 238.366 153.681 241.273 163.079 242.524C195.527 246.778 226.496 232.973 244.452 205.757C243.33 205.641 242.199 205.64 241.076 205.752ZM197.016 215.097L197.327 214.889C201.883 215.927 206.207 217.383 210.226 219.351C206.84 223.184 202.507 226.515 198.495 229.317C196.068 230.766 193.628 232.34 191.089 233.577L186.554 231.605L186.865 230.887C190.677 225.801 194.06 220.602 197.016 215.097ZM176.189 211.98C182.218 212.094 188.244 212.715 193.837 214.059L193.948 214.374C190.994 219.976 187.287 225.389 183.278 230.467C181.471 230.68 179.788 229.962 177.993 229.851L176.187 229.637C175.981 223.509 175.869 218.108 176.189 211.98ZM155.801 213.848C161.296 212.81 167 211.98 172.915 211.98L173.024 229.549C170.801 230.052 168.371 230.052 166.256 230.585C161.922 225.484 158.333 219.976 155.272 214.261L155.801 213.848ZM138.777 219.462C142.909 217.482 147.235 216.02 151.669 214.886L152.098 214.995C155.154 220.709 158.963 226.105 162.766 231.505C161.299 232.342 159.492 232.842 158.018 233.686C150.871 230.156 144.367 225.45 138.779 219.765V219.462H138.777ZM152.415 237.219C143.537 234.926 135.287 230.981 127.679 225.59V225.268C130.216 223.725 132.762 222.058 135.5 220.903C141.529 226.84 147.759 231.306 154.523 235.554C153.997 236.178 153.153 236.804 152.415 237.219ZM191.62 238.561C180.421 240.965 167.944 241.057 156.747 238.361C156.533 237.845 157.275 237.733 157.591 237.43C167.42 231.088 182.737 231.088 192.365 237.935C192.678 238.561 191.834 238.361 191.62 238.561ZM201.769 235.664L196.803 237.216C195.954 236.802 195.219 236.178 194.472 235.552L194.686 235.234C201.452 231.304 207.578 226.513 213.393 220.801C216.248 221.942 218.998 223.509 221.541 225.265C215.617 229.962 208.744 233.063 201.769 235.664ZM107.604 117.99C110.218 114.372 113.077 110.938 116.162 107.713C118.9 105.117 121.447 102.625 124.41 100.747C127.16 102.511 130.221 103.981 132.862 105.636C129.588 109.666 126.205 113.734 123.775 118.085C124.51 118.409 125.889 118.307 126.949 118.085C129.588 114.249 132.433 110.408 135.827 106.978C140.36 108.644 144.805 110.403 149.462 111.655L149.872 112.068L147.24 118.085C148.407 118.307 149.146 118.198 150.301 118.085C151.249 116.33 151.984 114.362 153.041 112.587C159.179 113.943 165.628 114.666 172.18 114.867C173.02 115.605 172.389 117.155 172.707 118.085H175.559C175.869 117.065 175.452 115.908 175.869 114.984C182.005 114.661 188.448 114.038 194.387 112.582L194.901 112.691L197.756 118.08C198.709 118.08 199.975 118.303 200.714 117.866L198.066 111.859L198.287 111.65C203.14 110.403 207.692 108.535 212.341 106.669C215.626 110.095 218.682 114.144 221.439 118.077C222.596 118.077 223.76 118.191 224.607 117.864C223.302 115.545 221.779 113.356 220.06 111.326C218.664 109.337 217.107 107.466 215.404 105.733V105.195L222.803 100.944L223.869 100.529C230.304 105.4 235.935 111.249 240.557 117.864C241.825 117.864 242.885 118.3 243.945 117.776C229.768 96.608 206.416 82.9882 181.17 81.0276L181.059 81.2291L180.843 81.0276C177.993 80.7217 174.492 80.6008 171.431 80.9067C170.272 80.8166 168.902 80.9067 167.524 81.0276C142.164 82.9882 118.81 95.9774 104.218 118.089C105.276 117.99 106.544 118.412 107.604 117.99ZM151.47 108.865L151.048 108.955C146.709 107.824 142.477 106.461 138.461 104.702L138.665 104.078C144.478 98.5758 150.607 94.0026 157.37 90.4797C158.963 91.1032 160.547 91.6176 162.131 92.3549L161.82 93.1657C157.797 98.1632 154.634 103.552 151.47 108.865ZM172.493 111.66C169.542 112.075 166.898 111.567 163.928 111.337C161.088 110.92 157.486 110.619 154.634 109.671C157.7 103.986 161.299 98.4714 165.628 93.3957L172.394 94.3179C172.707 99.709 172.493 105.944 172.493 111.66ZM175.767 111.771C175.559 106.25 175.668 100.131 175.767 94.4175C177.889 94.114 180.203 93.7916 182.322 93.4858C186.443 98.6706 190.468 103.986 193.218 109.671C187.504 111.053 181.646 111.758 175.767 111.771ZM209.491 104.491C205.361 106.247 201.129 107.912 196.592 108.865C193.318 103.36 189.726 97.8574 185.698 92.5399C187.18 91.7267 188.986 91.1032 190.568 90.2758C197.45 93.6992 204.1 98.5758 209.695 104.166L209.491 104.491ZM195.954 86.7339C204.832 89.0241 213.182 92.9642 220.792 98.3648L220.581 98.7796L213.296 102.824H212.758C207.165 97.2363 200.615 92.3549 193.948 88.5025C194.159 87.7747 195.221 87.2507 195.954 86.7339ZM191.732 85.6908V85.9113C182.531 92.5399 167.633 93.1657 157.916 87.0374C157.37 86.6225 156.327 86.421 156.213 85.6932C167.422 83.1091 180.625 82.9004 191.732 85.6908ZM127.26 98.5758C133.924 93.6992 141.318 90.0648 149.141 87.5708C149.462 87.246 149.665 86.9402 150.083 86.9402V87.1535C150.927 87.3574 151.564 86.4163 152.302 87.0326C152.939 87.5708 153.686 87.9809 154.208 88.4978C147.66 92.5399 141.209 97.3264 135.289 103.13C132.435 102.111 129.803 100.543 127.257 98.7796L127.26 98.5758ZM172.602 181.644C162.669 184.349 151.882 182.286 144.699 174.797C143.857 173.759 143.324 172.521 142.475 171.488L128.213 171.587C127.987 179.996 127.888 189.657 128.213 197.969L144.059 197.867L144.27 192.879C146.074 193.709 147.873 194.745 149.665 195.676C160.656 200.252 174.805 201.29 185.693 195.676C193.626 191.326 197.855 182.917 196.689 173.863C195.532 165.046 187.073 157.045 178.52 154.871L152.937 147.491L151.045 146.552C150.199 145.832 149.668 144.902 149.874 143.75C151.882 140.332 156.538 141.37 160.026 141.462C167.422 142.503 175.03 144.995 179.366 151.749C184.01 151.749 189.399 151.839 194.468 151.64C194.683 143.127 194.385 135.654 194.259 127.032C189.503 126.923 183.688 126.923 178.939 127.141C178.726 128.376 179.143 130.135 178.614 131.387L173.757 128.788C162.126 123.909 145.849 123.4 135.285 130.981C128.412 135.958 126.304 144.898 128.101 152.787C129.469 160.253 136.655 165.762 143.528 168.351C152.932 171.67 162.757 174.074 172.285 177.289C173.228 177.711 174.494 178.652 174.29 179.792C174.295 180.715 173.337 181.248 172.602 181.644Z" fill="#0037B7"/>
</g>
<path d="M321.716 157V148.136L342.426 128.96C344.188 127.256 345.665 125.722 346.858 124.358C348.07 122.994 348.989 121.659 349.614 120.352C350.239 119.027 350.551 117.597 350.551 116.062C350.551 114.358 350.163 112.89 349.386 111.659C348.61 110.409 347.549 109.453 346.205 108.79C344.86 108.108 343.335 107.767 341.631 107.767C339.85 107.767 338.297 108.127 336.972 108.847C335.646 109.566 334.623 110.598 333.903 111.943C333.184 113.288 332.824 114.888 332.824 116.744H321.148C321.148 112.937 322.009 109.633 323.733 106.83C325.456 104.027 327.871 101.858 330.977 100.324C334.083 98.7898 337.663 98.0227 341.716 98.0227C345.883 98.0227 349.509 98.7614 352.597 100.239C355.703 101.697 358.117 103.723 359.841 106.318C361.564 108.913 362.426 111.886 362.426 115.239C362.426 117.436 361.991 119.604 361.119 121.744C360.267 123.884 358.742 126.261 356.545 128.875C354.348 131.47 351.252 134.585 347.256 138.222L338.761 146.545V146.943H363.193V157H321.716ZM376.808 157L400.927 109.273V108.875H372.83V98.8182H413.654V109.017L389.507 157H376.808ZM446.047 158.278C441.161 158.259 436.956 157.057 433.434 154.67C429.93 152.284 427.231 148.828 425.337 144.301C423.462 139.775 422.534 134.33 422.553 127.966C422.553 121.621 423.49 116.214 425.365 111.744C427.259 107.275 429.958 103.875 433.462 101.545C436.985 99.197 441.18 98.0227 446.047 98.0227C450.915 98.0227 455.1 99.197 458.604 101.545C462.127 103.894 464.835 107.303 466.729 111.773C468.623 116.223 469.56 121.621 469.541 127.966C469.541 134.348 468.595 139.803 466.701 144.33C464.826 148.856 462.136 152.312 458.632 154.699C455.129 157.085 450.934 158.278 446.047 158.278ZM446.047 148.08C449.38 148.08 452.041 146.403 454.03 143.051C456.019 139.699 457.004 134.67 456.985 127.966C456.985 123.553 456.53 119.879 455.621 116.943C454.731 114.008 453.462 111.801 451.814 110.324C450.185 108.847 448.263 108.108 446.047 108.108C442.733 108.108 440.081 109.765 438.093 113.08C436.104 116.394 435.1 121.356 435.081 127.966C435.081 132.436 435.526 136.167 436.416 139.159C437.326 142.133 438.604 144.367 440.252 145.864C441.899 147.341 443.831 148.08 446.047 148.08ZM503.525 158.278C498.639 158.259 494.434 157.057 490.912 154.67C487.408 152.284 484.709 148.828 482.815 144.301C480.94 139.775 480.012 134.33 480.031 127.966C480.031 121.621 480.968 116.214 482.843 111.744C484.737 107.275 487.436 103.875 490.94 101.545C494.463 99.197 498.658 98.0227 503.525 98.0227C508.393 98.0227 512.578 99.197 516.082 101.545C519.605 103.894 522.313 107.303 524.207 111.773C526.101 116.223 527.039 121.621 527.02 127.966C527.02 134.348 526.073 139.803 524.179 144.33C522.304 148.856 519.614 152.312 516.111 154.699C512.607 157.085 508.412 158.278 503.525 158.278ZM503.525 148.08C506.859 148.08 509.52 146.403 511.508 143.051C513.497 139.699 514.482 134.67 514.463 127.966C514.463 123.553 514.008 119.879 513.099 116.943C512.209 114.008 510.94 111.801 509.292 110.324C507.664 108.847 505.741 108.108 503.525 108.108C500.211 108.108 497.559 109.765 495.571 113.08C493.582 116.394 492.578 121.356 492.559 127.966C492.559 132.436 493.004 136.167 493.895 139.159C494.804 142.133 496.082 144.367 497.73 145.864C499.378 147.341 501.309 148.08 503.525 148.08ZM563.503 98.8182V157H551.202V110.494H550.861L537.538 118.847V107.938L551.941 98.8182H563.503ZM586.919 150.239C585.044 150.239 583.434 149.576 582.089 148.25C580.764 146.924 580.101 145.314 580.101 143.42C580.101 141.564 580.764 139.973 582.089 138.648C583.434 137.322 585.044 136.659 586.919 136.659C588.737 136.659 590.328 137.322 591.692 138.648C593.055 139.973 593.737 141.564 593.737 143.42C593.737 144.67 593.415 145.816 592.771 146.858C592.146 147.881 591.322 148.705 590.3 149.33C589.277 149.936 588.15 150.239 586.919 150.239ZM586.919 121.688C585.044 121.688 583.434 121.025 582.089 119.699C580.764 118.373 580.101 116.763 580.101 114.869C580.101 113.013 580.764 111.432 582.089 110.125C583.434 108.799 585.044 108.136 586.919 108.136C588.737 108.136 590.328 108.799 591.692 110.125C593.055 111.432 593.737 113.013 593.737 114.869C593.737 116.138 593.415 117.294 592.771 118.335C592.146 119.358 591.322 120.172 590.3 120.778C589.277 121.384 588.15 121.688 586.919 121.688ZM605.96 157V148.136L626.67 128.96C628.431 127.256 629.909 125.722 631.102 124.358C632.314 122.994 633.232 121.659 633.857 120.352C634.482 119.027 634.795 117.597 634.795 116.062C634.795 114.358 634.407 112.89 633.63 111.659C632.854 110.409 631.793 109.453 630.448 108.79C629.104 108.108 627.579 107.767 625.874 107.767C624.094 107.767 622.541 108.127 621.215 108.847C619.89 109.566 618.867 110.598 618.147 111.943C617.427 113.288 617.068 114.888 617.068 116.744H605.391C605.391 112.937 606.253 109.633 607.977 106.83C609.7 104.027 612.115 101.858 615.221 100.324C618.327 98.7898 621.907 98.0227 625.96 98.0227C630.126 98.0227 633.753 98.7614 636.84 100.239C639.946 101.697 642.361 103.723 644.085 106.318C645.808 108.913 646.67 111.886 646.67 115.239C646.67 117.436 646.234 119.604 645.363 121.744C644.511 123.884 642.986 126.261 640.789 128.875C638.592 131.47 635.496 134.585 631.499 138.222L623.005 146.545V146.943H647.437V157H605.96ZM681.563 158.278C676.676 158.259 672.472 157.057 668.949 154.67C665.445 152.284 662.746 148.828 660.853 144.301C658.978 139.775 658.05 134.33 658.068 127.966C658.068 121.621 659.006 116.214 660.881 111.744C662.775 107.275 665.474 103.875 668.978 101.545C672.5 99.197 676.695 98.0227 681.563 98.0227C686.43 98.0227 690.616 99.197 694.12 101.545C697.642 103.894 700.351 107.303 702.245 111.773C704.139 116.223 705.076 121.621 705.057 127.966C705.057 134.348 704.11 139.803 702.216 144.33C700.341 148.856 697.652 152.312 694.148 154.699C690.644 157.085 686.449 158.278 681.563 158.278ZM681.563 148.08C684.896 148.08 687.557 146.403 689.546 143.051C691.534 139.699 692.519 134.67 692.5 127.966C692.5 123.553 692.046 119.879 691.137 116.943C690.246 114.008 688.978 111.801 687.33 110.324C685.701 108.847 683.779 108.108 681.563 108.108C678.248 108.108 675.597 109.765 673.608 113.08C671.62 116.394 670.616 121.356 670.597 127.966C670.597 132.436 671.042 136.167 671.932 139.159C672.841 142.133 674.12 144.367 675.767 145.864C677.415 147.341 679.347 148.08 681.563 148.08ZM716.228 157V148.136L736.939 128.96C738.7 127.256 740.177 125.722 741.37 124.358C742.583 122.994 743.501 121.659 744.126 120.352C744.751 119.027 745.064 117.597 745.064 116.062C745.064 114.358 744.675 112.89 743.899 111.659C743.122 110.409 742.062 109.453 740.717 108.79C739.372 108.108 737.848 107.767 736.143 107.767C734.363 107.767 732.81 108.127 731.484 108.847C730.158 109.566 729.136 110.598 728.416 111.943C727.696 113.288 727.336 114.888 727.336 116.744H715.66C715.66 112.937 716.522 109.633 718.245 106.83C719.969 104.027 722.384 101.858 725.49 100.324C728.596 98.7898 732.175 98.0227 736.228 98.0227C740.395 98.0227 744.022 98.7614 747.109 100.239C750.215 101.697 752.63 103.723 754.353 106.318C756.077 108.913 756.939 111.886 756.939 115.239C756.939 117.436 756.503 119.604 755.632 121.744C754.78 123.884 753.255 126.261 751.058 128.875C748.861 131.47 745.764 134.585 741.768 138.222L733.274 146.545V146.943H757.706V157H716.228ZM769.019 157V148.136L789.729 128.96C791.491 127.256 792.968 125.722 794.161 124.358C795.373 122.994 796.292 121.659 796.917 120.352C797.542 119.027 797.854 117.597 797.854 116.062C797.854 114.358 797.466 112.89 796.689 111.659C795.913 110.409 794.852 109.453 793.508 108.79C792.163 108.108 790.638 107.767 788.934 107.767C787.154 107.767 785.6 108.127 784.275 108.847C782.949 109.566 781.926 110.598 781.207 111.943C780.487 113.288 780.127 114.888 780.127 116.744H768.451C768.451 112.937 769.313 109.633 771.036 106.83C772.76 104.027 775.174 101.858 778.28 100.324C781.386 98.7898 784.966 98.0227 789.019 98.0227C793.186 98.0227 796.813 98.7614 799.9 100.239C803.006 101.697 805.421 103.723 807.144 106.318C808.868 108.913 809.729 111.886 809.729 115.239C809.729 117.436 809.294 119.604 808.422 121.744C807.57 123.884 806.046 126.261 803.849 128.875C801.652 131.47 798.555 134.585 794.559 138.222L786.064 146.545V146.943H810.496V157H769.019Z" fill="#0037B7"/>
<path d="M328.934 190V230H320.477V190H328.934ZM357.591 201.504C357.435 199.928 356.764 198.704 355.579 197.832C354.394 196.96 352.786 196.523 350.755 196.523C349.375 196.523 348.209 196.719 347.259 197.109C346.308 197.487 345.579 198.014 345.071 198.691C344.576 199.368 344.329 200.137 344.329 200.996C344.303 201.712 344.453 202.337 344.778 202.871C345.117 203.405 345.579 203.867 346.165 204.258C346.751 204.635 347.428 204.967 348.196 205.254C348.965 205.527 349.785 205.762 350.657 205.957L354.251 206.816C355.996 207.207 357.597 207.728 359.056 208.379C360.514 209.03 361.777 209.831 362.845 210.781C363.912 211.732 364.739 212.852 365.325 214.141C365.924 215.43 366.23 216.908 366.243 218.574C366.23 221.022 365.605 223.145 364.368 224.941C363.144 226.725 361.373 228.112 359.056 229.102C356.751 230.078 353.971 230.566 350.716 230.566C347.487 230.566 344.674 230.072 342.278 229.082C339.896 228.092 338.034 226.628 336.692 224.687C335.364 222.734 334.668 220.319 334.603 217.441H342.786C342.877 218.783 343.261 219.902 343.938 220.801C344.629 221.686 345.547 222.357 346.692 222.812C347.851 223.255 349.16 223.477 350.618 223.477C352.05 223.477 353.294 223.268 354.349 222.852C355.416 222.435 356.243 221.855 356.829 221.113C357.415 220.371 357.708 219.518 357.708 218.555C357.708 217.656 357.441 216.901 356.907 216.289C356.386 215.677 355.618 215.156 354.603 214.727C353.6 214.297 352.369 213.906 350.911 213.555L346.556 212.461C343.183 211.641 340.521 210.358 338.567 208.613C336.614 206.868 335.644 204.518 335.657 201.562C335.644 199.141 336.289 197.025 337.591 195.215C338.906 193.405 340.709 191.992 343.001 190.977C345.293 189.961 347.897 189.453 350.813 189.453C353.782 189.453 356.373 189.961 358.587 190.977C360.813 191.992 362.545 193.405 363.782 195.215C365.019 197.025 365.657 199.121 365.696 201.504H357.591ZM408.689 210C408.689 214.362 407.863 218.073 406.209 221.133C404.568 224.193 402.329 226.53 399.49 228.145C396.665 229.746 393.488 230.547 389.959 230.547C386.404 230.547 383.214 229.74 380.389 228.125C377.563 226.51 375.33 224.173 373.689 221.113C372.049 218.053 371.229 214.349 371.229 210C371.229 205.638 372.049 201.927 373.689 198.867C375.33 195.807 377.563 193.477 380.389 191.875C383.214 190.26 386.404 189.453 389.959 189.453C393.488 189.453 396.665 190.26 399.49 191.875C402.329 193.477 404.568 195.807 406.209 198.867C407.863 201.927 408.689 205.638 408.689 210ZM400.115 210C400.115 207.174 399.692 204.792 398.846 202.852C398.012 200.911 396.834 199.44 395.311 198.438C393.787 197.435 392.003 196.934 389.959 196.934C387.915 196.934 386.131 197.435 384.607 198.438C383.084 199.44 381.899 200.911 381.053 202.852C380.219 204.792 379.803 207.174 379.803 210C379.803 212.826 380.219 215.208 381.053 217.148C381.899 219.089 383.084 220.56 384.607 221.562C386.131 222.565 387.915 223.066 389.959 223.066C392.003 223.066 393.787 222.565 395.311 221.562C396.834 220.56 398.012 219.089 398.846 217.148C399.692 215.208 400.115 212.826 400.115 210ZM430.018 188.125L417.127 236.016H409.959L422.85 188.125H430.018ZM442.64 190V230H434.183V190H442.64ZM449.598 230V190H476.551V196.973H458.055V206.504H475.164V213.477H458.055V223.027H476.629V230H449.598ZM518.567 204.004H510.013C509.856 202.897 509.537 201.914 509.056 201.055C508.574 200.182 507.955 199.44 507.2 198.828C506.445 198.216 505.573 197.747 504.583 197.422C503.606 197.096 502.545 196.934 501.399 196.934C499.329 196.934 497.526 197.448 495.989 198.477C494.453 199.492 493.261 200.977 492.415 202.93C491.569 204.87 491.146 207.227 491.146 210C491.146 212.852 491.569 215.247 492.415 217.187C493.274 219.128 494.472 220.592 496.009 221.582C497.545 222.572 499.323 223.066 501.341 223.066C502.474 223.066 503.522 222.917 504.485 222.617C505.462 222.318 506.328 221.882 507.083 221.309C507.838 220.723 508.463 220.013 508.958 219.18C509.466 218.346 509.817 217.396 510.013 216.328L518.567 216.367C518.346 218.203 517.793 219.974 516.907 221.68C516.035 223.372 514.856 224.889 513.372 226.23C511.901 227.559 510.143 228.613 508.099 229.395C506.067 230.163 503.769 230.547 501.204 230.547C497.636 230.547 494.446 229.74 491.634 228.125C488.834 226.51 486.621 224.173 484.993 221.113C483.379 218.053 482.571 214.349 482.571 210C482.571 205.638 483.392 201.927 485.032 198.867C486.673 195.807 488.899 193.477 491.712 191.875C494.524 190.26 497.688 189.453 501.204 189.453C503.522 189.453 505.67 189.779 507.649 190.43C509.642 191.081 511.406 192.031 512.942 193.281C514.479 194.518 515.729 196.035 516.692 197.832C517.669 199.629 518.294 201.686 518.567 204.004ZM572.654 204.004H564.1C563.943 202.897 563.624 201.914 563.143 201.055C562.661 200.182 562.042 199.44 561.287 198.828C560.532 198.216 559.66 197.747 558.67 197.422C557.693 197.096 556.632 196.934 555.486 196.934C553.416 196.934 551.613 197.448 550.076 198.477C548.54 199.492 547.348 200.977 546.502 202.93C545.656 204.87 545.232 207.227 545.232 210C545.232 212.852 545.656 215.247 546.502 217.187C547.361 219.128 548.559 220.592 550.096 221.582C551.632 222.572 553.41 223.066 555.428 223.066C556.561 223.066 557.609 222.917 558.572 222.617C559.549 222.318 560.415 221.882 561.17 221.309C561.925 220.723 562.55 220.013 563.045 219.18C563.553 218.346 563.904 217.396 564.1 216.328L572.654 216.367C572.433 218.203 571.88 219.974 570.994 221.68C570.122 223.372 568.943 224.889 567.459 226.23C565.988 227.559 564.23 228.613 562.186 229.395C560.154 230.163 557.856 230.547 555.291 230.547C551.723 230.547 548.533 229.74 545.721 228.125C542.921 226.51 540.708 224.173 539.08 221.113C537.465 218.053 536.658 214.349 536.658 210C536.658 205.638 537.479 201.927 539.119 198.867C540.76 195.807 542.986 193.477 545.799 191.875C548.611 190.26 551.775 189.453 555.291 189.453C557.609 189.453 559.757 189.779 561.736 190.43C563.729 191.081 565.493 192.031 567.029 193.281C568.566 194.518 569.816 196.035 570.779 197.832C571.756 199.629 572.381 201.686 572.654 204.004ZM578.719 230V190H605.672V196.973H587.176V206.504H604.285V213.477H587.176V223.027H605.75V230H578.719ZM612.396 230V190H628.177C631.198 190 633.776 190.54 635.911 191.621C638.06 192.689 639.694 194.206 640.813 196.172C641.946 198.125 642.513 200.423 642.513 203.066C642.513 205.723 641.94 208.008 640.794 209.922C639.648 211.823 637.988 213.281 635.813 214.297C633.652 215.312 631.035 215.82 627.962 215.82H617.396V209.023H626.595C628.209 209.023 629.55 208.802 630.618 208.359C631.686 207.917 632.48 207.253 633.001 206.367C633.535 205.482 633.802 204.382 633.802 203.066C633.802 201.738 633.535 200.618 633.001 199.707C632.48 198.796 631.679 198.105 630.599 197.637C629.531 197.155 628.183 196.914 626.556 196.914H620.853V230H612.396ZM633.997 211.797L643.938 230H634.603L624.876 211.797H633.997ZM646.966 196.973V190H679.817V196.973H667.571V230H659.212V196.973H646.966ZM693.685 190V230H685.228V190H693.685ZM700.643 230V190H727.127V196.973H709.1V206.504H725.369V213.477H709.1V230H700.643ZM741.272 190V230H732.815V190H741.272ZM748.23 230V190H775.184V196.973H756.688V206.504H773.797V213.477H756.688V223.027H775.262V230H748.23ZM796.087 230H781.907V190H796.204C800.228 190 803.691 190.801 806.595 192.402C809.498 193.991 811.731 196.276 813.294 199.258C814.869 202.24 815.657 205.807 815.657 209.961C815.657 214.128 814.869 217.708 813.294 220.703C811.731 223.698 809.485 225.996 806.556 227.598C803.639 229.199 800.149 230 796.087 230ZM790.364 222.754H795.735C798.235 222.754 800.338 222.311 802.044 221.426C803.763 220.527 805.052 219.141 805.911 217.266C806.784 215.378 807.22 212.943 807.22 209.961C807.22 207.005 806.784 204.59 805.911 202.715C805.052 200.84 803.769 199.46 802.063 198.574C800.358 197.689 798.255 197.246 795.755 197.246H790.364V222.754Z" fill="#0037B7"/>
<defs>
<clipPath id="clip0_577_191">
<rect width="200" height="200" fill="white" transform="translate(77 62)"/>
</clipPath>
</defs>
</svg>
